<svg version="1.1" id="Layer_1" xmlns="http://www.w3.org/2000/svg" xmlns:xlink="http://www.w3.org/1999/xlink" x="0px" y="0px"
	 width="100%" viewBox="0 0 500 500" enable-background="new 0 0 500 500" xml:space="preserve">
<path fill="#000000" opacity="1.000000" stroke="none" 
	d="
M335.000000,501.000000 
	C223.333359,501.000000 112.166718,501.000000 1.000060,501.000000 
	C1.000040,334.333405 1.000040,167.666794 1.000020,1.000149 
	C167.666565,1.000099 334.333130,1.000099 500.999756,1.000050 
	C500.999847,167.666519 500.999847,334.333038 500.999939,500.999786 
	C445.833344,501.000000 390.666656,501.000000 335.000000,501.000000 
M88.002174,176.000244 
	C88.002174,176.000244 87.987152,175.973190 87.539635,176.184540 
	C87.259193,176.383698 87.070518,176.648300 87.000610,176.999390 
	C87.000610,176.999390 86.977692,176.972855 86.528175,177.175201 
	C86.246269,177.372940 86.062233,177.638519 85.977959,177.997742 
	C85.977959,177.997742 85.957779,177.974869 85.340042,178.255829 
	C83.883690,180.500351 82.427330,182.744858 80.999184,185.003906 
	C80.999184,185.003906 80.988396,184.974396 80.377029,185.290024 
	C74.204155,193.133408 70.508430,201.936066 70.023430,212.726883 
	C70.003860,213.465744 69.984299,214.204590 69.353409,215.532318 
	C68.809120,226.248703 69.145462,236.568375 73.493523,246.941803 
	C78.715675,259.400574 86.724640,268.755890 98.153122,275.334320 
	C101.398239,277.202271 105.361626,277.822449 109.001839,279.000000 
	C109.001839,279.000000 108.987732,279.004669 108.997009,279.585297 
	C112.260551,280.571777 115.481613,281.745056 118.797989,282.499176 
	C123.306252,283.524353 127.887375,284.229156 132.181168,285.023987 
	C131.409958,291.581818 130.738235,297.293671 130.027496,303.631012 
	C130.012283,304.048523 129.997086,304.466064 129.483795,305.259155 
	C129.334900,305.845856 129.185989,306.432526 129.024139,307.794830 
	C128.995255,308.828552 128.966370,309.862274 128.384155,311.416656 
	C128.294556,312.918060 128.204956,314.419495 128.073700,316.688721 
	C128.057327,317.457489 128.040955,318.226288 127.470970,319.528137 
	C126.673004,325.008881 125.875031,330.489594 125.040878,336.778442 
	C125.028732,337.856934 125.016586,338.935425 124.540649,340.344208 
	C124.407982,340.880554 124.275307,341.416870 124.063347,342.437286 
	C124.063347,342.437286 123.993958,342.922852 123.425591,343.500305 
	C123.277557,345.273407 123.191345,347.054352 122.966545,348.817688 
	C122.654480,351.265533 122.238411,353.700134 121.866859,356.140411 
	C124.541725,356.437866 127.216583,356.735352 130.850601,357.053864 
	C139.560867,357.020935 148.271118,356.987976 157.881714,356.963287 
	C159.202271,356.966125 160.558838,356.772095 161.837158,357.005859 
	C167.390167,358.021484 168.266129,354.193176 168.963089,350.224670 
	C169.585022,346.683380 170.147141,343.128479 170.611908,339.563446 
	C171.415100,333.402557 172.122482,327.229187 173.166260,320.481201 
	C174.109772,315.179260 175.207489,309.898346 175.933578,304.566803 
	C176.312698,301.783203 176.037857,298.910583 176.682587,295.963593 
	C177.447800,291.310822 178.213013,286.658051 178.982010,281.527161 
	C178.982010,281.527161 179.000412,281.049377 179.659393,280.699432 
	C180.497528,276.280548 181.335663,271.861664 182.173798,267.442810 
	C181.705246,267.073578 181.236710,266.704376 180.768158,266.335175 
	C169.751785,275.681580 156.652344,279.989258 142.382523,283.030640 
	C141.939270,283.010834 141.496002,282.991028 140.556152,282.464844 
	C137.276505,281.618713 133.971359,280.859528 130.722992,279.906738 
	C125.425629,278.352966 120.087074,276.884399 114.916885,274.971710 
	C111.470695,273.696808 108.286781,271.712982 105.001518,270.009125 
	C105.001518,270.009125 104.961624,270.016449 104.694695,269.394348 
	C104.146561,268.774994 103.685143,268.040283 103.037453,267.553375 
	C90.809792,258.360779 83.897018,246.107437 81.974625,230.074188 
	C82.324783,223.397156 82.674934,216.720123 83.019951,210.018402 
	C83.019951,210.018402 83.042694,210.007568 83.362610,209.810196 
	C83.243713,209.525223 83.124825,209.240265 83.003845,208.499420 
	C83.003845,208.499420 83.034241,208.044556 83.594566,207.996506 
	C88.519608,200.384888 92.219620,191.478790 98.617828,185.423859 
	C113.141159,171.679733 131.216034,165.894073 151.375732,166.863373 
	C150.467865,177.088242 150.443405,176.938553 141.455429,178.406830 
	C136.167297,179.270691 130.729813,180.076660 125.780983,181.995636 
	C112.497612,187.146439 101.946312,195.346054 98.027184,210.429245 
	C98.027184,210.429245 97.979004,210.874924 97.503960,211.135513 
	C97.337730,211.446976 97.171501,211.758423 96.996445,212.851151 
	C96.996475,213.893829 96.996513,214.936523 96.592659,216.204102 
	C96.332611,216.393799 96.166328,216.645447 96.038422,217.612396 
	C96.010452,218.048615 95.982483,218.484848 95.348900,219.496918 
	C95.919556,225.203278 96.077850,230.987854 97.142334,236.600571 
	C99.774162,250.477463 110.990433,262.961426 126.147133,266.094421 
	C129.612350,266.810699 133.048950,267.680206 136.472336,268.579651 
	C139.232498,269.304871 142.011520,271.029236 144.680786,270.844543 
	C156.401459,270.033722 167.811630,267.632080 178.435410,262.305603 
	C181.707916,260.664856 184.997543,259.058319 188.017700,257.565460 
	C187.333374,259.813629 186.696930,261.904510 186.351715,264.827118 
	C196.539581,264.860291 206.727432,264.893463 217.835617,264.978027 
	C223.456467,264.991638 229.077377,265.024933 234.698166,265.011383 
	C237.992432,265.003418 240.264923,264.109283 240.832886,260.138763 
	C241.358688,256.462921 243.180923,252.987350 243.890320,249.318787 
	C244.608124,245.606720 244.661148,241.766113 245.272171,237.550446 
	C245.512222,236.770370 245.752258,235.990280 246.652786,234.853912 
	C249.233871,231.328171 247.533875,230.056503 243.986954,230.054596 
	C226.693314,230.045334 209.399643,230.102356 191.472687,230.340195 
	C190.031158,230.712402 188.589630,231.084595 186.052307,231.739731 
	C187.055084,229.686951 187.665054,228.925476 187.799789,228.087570 
	C189.240768,219.126617 190.652451,210.160080 191.926712,201.174438 
	C192.064362,200.203796 191.285706,199.103210 190.971878,197.548782 
	C190.981705,197.377167 190.991531,197.205566 191.694809,196.911362 
	C192.434464,194.073166 193.118515,191.219025 193.926575,188.400436 
	C195.201569,183.953110 193.195206,182.174835 188.961929,181.775833 
	C185.184998,181.419830 181.304718,179.866074 177.702972,180.403061 
	C169.099838,181.685715 159.936905,173.816849 151.771057,182.296036 
	C152.254440,180.315567 153.084564,178.737244 153.508057,177.056473 
	C155.951904,167.357208 156.172058,167.141983 166.544647,167.187408 
	C174.974396,168.399750 183.405945,169.599792 191.833496,170.827209 
	C205.685104,172.844574 219.484680,175.375702 233.398666,176.762466 
	C246.321869,178.050507 259.326324,177.360947 271.620148,172.465195 
	C277.416992,170.156738 282.699005,167.066605 286.059753,161.170197 
	C290.972961,152.549942 291.804962,143.092880 293.507965,132.024689 
	C287.305084,136.198303 282.509827,140.234787 277.041779,142.881073 
	C271.328583,145.645981 264.967987,147.073181 257.965393,149.058289 
	C248.700577,149.076019 239.435776,149.093735 229.319809,149.024979 
	C224.860382,148.368088 220.421219,147.435089 215.937729,147.105774 
	C202.167038,146.094345 188.419235,143.777283 174.579407,145.075500 
	C165.001770,145.973892 155.502014,147.702408 145.356461,148.791489 
	C141.953156,149.179733 138.448105,149.188171 135.175674,150.064911 
	C132.012268,150.912460 129.088501,152.654495 125.534996,154.013626 
	C125.360245,154.019791 125.185501,154.025955 124.206276,153.974930 
	C118.799828,156.305389 113.393379,158.635849 107.978317,160.991455 
	C107.978317,160.991455 107.963585,160.966782 107.218155,160.932053 
	C99.837997,163.931717 93.822174,168.701096 89.000374,175.003906 
	C89.000374,175.003906 88.999557,174.980667 88.558556,175.204666 
	C88.282539,175.405121 88.087708,175.666168 88.002174,176.000244 
M337.522766,255.614548 
	C340.542145,248.906906 338.089233,242.275742 336.214203,236.129150 
	C332.555939,224.136826 324.987213,214.706055 313.894745,208.465637 
	C309.001984,205.713043 303.897186,203.500412 297.553894,205.013596 
	C297.553894,205.013596 297.074463,204.959747 296.718140,204.348572 
	C296.338806,204.031174 295.909760,203.393311 295.587402,203.443298 
	C287.684692,204.668991 279.359955,204.613708 272.366425,209.094131 
	C249.640182,223.653839 246.379333,240.727646 251.935333,265.470306 
	C254.545166,277.092773 263.470062,284.922180 274.357880,289.425781 
	C283.135071,293.056396 292.298889,295.253601 302.168884,292.935577 
	C312.577820,290.490997 321.435608,285.900970 327.967163,277.395966 
	C332.586792,271.380585 336.476501,264.928650 336.985779,256.536713 
	C336.985779,256.536713 337.040131,256.049500 337.522766,255.614548 
M281.211731,301.036011 
	C263.923859,299.008087 250.387344,290.698822 240.274628,276.627075 
	C237.358643,272.569519 233.328888,271.250641 228.499680,272.031067 
	C225.453323,272.523407 222.405594,273.007202 219.320847,273.500854 
	C227.849442,297.092255 258.277618,311.839844 286.850037,307.045654 
	C291.546234,306.130646 296.242432,305.215637 300.938629,304.300598 
	C300.857788,303.693268 300.776917,303.085938 300.696075,302.478607 
	C294.474854,302.023865 288.253601,301.569122 281.211731,301.036011 
M342.790100,184.138153 
	C336.897369,191.903824 339.264008,200.557251 340.456421,209.842392 
	C354.024017,209.895615 367.591980,209.912674 381.158722,210.049316 
	C382.794739,210.065796 384.424225,210.729294 385.674866,211.630264 
	C376.943939,220.042343 368.363403,228.618378 359.430847,236.810577 
	C353.161591,242.560226 347.921722,248.205795 353.839172,257.136261 
	C353.923401,257.263397 353.895660,257.461578 353.932526,257.623779 
	C356.875793,270.582794 356.898499,268.532776 367.614227,266.794830 
	C387.366119,263.591370 402.378632,282.830658 398.601288,300.648865 
	C397.476898,305.952820 393.836761,311.752014 389.592804,315.093140 
	C384.806305,318.861389 378.192810,320.684204 372.097778,322.331451 
	C361.629395,325.160675 349.162445,319.546082 343.881134,310.167755 
	C342.360077,307.466705 341.402161,304.439636 340.277039,301.526855 
	C339.005249,298.234406 337.438202,296.824341 333.527313,298.534302 
	C325.506439,302.041168 317.285889,305.122314 309.030609,308.048889 
	C304.836884,309.535583 303.887238,311.891937 305.066284,315.969910 
	C311.073303,336.745972 335.867493,356.707062 357.430115,357.750732 
	C367.976715,358.261230 378.544373,358.599182 388.877625,355.533203 
	C402.676147,351.439026 414.675873,344.215302 422.171021,331.946289 
	C429.951782,319.209625 434.945160,305.331818 432.110931,289.643219 
	C429.792175,276.807953 424.124603,265.928589 413.922424,258.159058 
	C407.023499,252.905090 398.804382,249.384598 391.059570,245.023346 
	C399.582397,236.874969 409.078033,228.184158 418.073700,219.003403 
	C421.619385,215.384720 425.407837,211.031128 426.637817,206.366730 
	C428.116150,200.760330 426.933990,194.465118 427.000183,188.469208 
	C427.045471,184.368881 425.015778,182.824142 421.076935,183.023407 
	C413.371582,183.413208 405.659485,183.668793 397.512817,183.244461 
	C380.195190,183.142532 362.877625,183.027740 345.559845,182.984924 
	C344.856018,182.983200 344.150452,183.660065 342.790100,184.138153 
M281.074860,171.418625 
	C258.654144,185.443161 233.644958,185.644852 208.315659,184.994598 
	C209.921814,186.085876 211.547562,186.692719 213.227783,186.972290 
	C222.739731,188.554977 232.467270,189.296494 241.740433,191.759094 
	C257.909119,196.052841 272.689087,193.899750 286.708588,185.040070 
	C288.196808,184.099579 289.993500,183.178116 291.683075,183.107391 
	C298.593506,182.818161 305.602814,181.779602 312.276489,184.819397 
	C312.843079,185.077484 313.832001,184.408371 315.799438,183.816772 
	C305.283905,178.922638 295.922455,174.455872 286.430969,170.285065 
	C285.224396,169.754868 283.337616,170.772583 281.074860,171.418625 
z"/>
<path fill="#043705" opacity="1.000000" stroke="none" 
	d="
M340.112762,209.047516 
	C339.264008,200.557251 336.897369,191.903824 343.618469,184.180878 
	C362.281250,184.142365 380.115723,184.061157 397.950165,183.979950 
	C405.659485,183.668793 413.371582,183.413208 421.076935,183.023407 
	C425.015778,182.824142 427.045471,184.368881 427.000183,188.469208 
	C426.933990,194.465118 428.116150,200.760330 426.637817,206.366730 
	C425.407837,211.031128 421.619385,215.384720 418.073700,219.003403 
	C409.078033,228.184158 399.582397,236.874969 391.059570,245.023346 
	C398.804382,249.384598 407.023499,252.905090 413.922424,258.159058 
	C424.124603,265.928589 429.792175,276.807953 432.110931,289.643219 
	C434.945160,305.331818 429.951782,319.209625 422.171021,331.946289 
	C414.675873,344.215302 402.676147,351.439026 388.877625,355.533203 
	C378.544373,358.599182 367.976715,358.261230 357.430115,357.750732 
	C335.867493,356.707062 311.073303,336.745972 305.066284,315.969910 
	C303.887238,311.891937 304.836884,309.535583 309.030609,308.048889 
	C317.285889,305.122314 325.506439,302.041168 333.527313,298.534302 
	C337.438202,296.824341 339.005249,298.234406 340.277039,301.526855 
	C341.402161,304.439636 342.360077,307.466705 343.881134,310.167755 
	C349.162445,319.546082 361.629395,325.160675 372.097778,322.331451 
	C378.192810,320.684204 384.806305,318.861389 389.592804,315.093140 
	C393.836761,311.752014 397.476898,305.952820 398.601288,300.648865 
	C402.378632,282.830658 387.366119,263.591370 367.614227,266.794830 
	C356.898499,268.532776 356.875793,270.582794 353.932526,257.623779 
	C353.895660,257.461578 353.923401,257.263397 353.839172,257.136261 
	C347.921722,248.205795 353.161591,242.560226 359.430847,236.810577 
	C368.363403,228.618378 376.943939,220.042343 386.229004,211.291794 
	C388.725800,207.181091 385.144958,209.078644 384.501434,209.073990 
	C369.705902,208.966949 354.909241,209.022354 340.112762,209.047516 
z"/>
<path fill="#053706" opacity="1.000000" stroke="none" 
	d="
M69.964737,214.943451 
	C69.984299,214.204590 70.003860,213.465744 70.285858,212.109604 
	C71.842400,207.938858 73.053955,204.352585 74.449905,200.839584 
	C76.561989,195.524399 78.802475,190.260239 80.988396,184.974396 
	C80.988396,184.974396 80.999184,185.003906 81.337395,184.951599 
	C83.102997,182.591156 84.530388,180.283005 85.957779,177.974869 
	C85.957779,177.974869 85.977959,177.997742 86.196175,177.876648 
	C86.688385,177.556732 86.876152,177.295837 86.977692,176.972855 
	C86.977692,176.972855 87.000610,176.999390 87.207413,176.878998 
	C87.688789,176.557785 87.879776,176.295990 87.987152,175.973190 
	C87.987152,175.973190 88.002174,176.000244 88.206802,175.879944 
	C88.682701,175.556793 88.878746,175.297134 88.999557,174.980667 
	C88.999557,174.980667 89.000374,175.003906 89.357605,174.992905 
	C95.619095,170.938843 101.537933,166.916580 107.396629,162.808548 
	C107.811920,162.517365 107.784920,161.595428 107.963585,160.966782 
	C107.963585,160.966782 107.978317,160.991455 108.394699,160.993866 
	C114.496162,159.338272 121.060570,159.725723 125.010757,154.032120 
	C125.185501,154.025955 125.360245,154.019791 126.206741,154.004593 
	C133.241470,152.350372 139.604462,150.705185 145.967453,149.059998 
	C155.502014,147.702408 165.001770,145.973892 174.579407,145.075500 
	C188.419235,143.777283 202.167038,146.094345 215.937729,147.105774 
	C220.421219,147.435089 224.860382,148.368088 230.029633,149.359131 
	C233.844406,149.813385 236.954956,150.112885 240.053116,150.015915 
	C246.335770,149.819260 252.611710,149.407974 258.890411,149.085175 
	C264.967987,147.073181 271.328583,145.645981 277.041779,142.881073 
	C282.509827,140.234787 287.305084,136.198303 293.507965,132.024689 
	C291.804962,143.092880 290.972961,152.549942 286.059753,161.170197 
	C282.699005,167.066605 277.416992,170.156738 271.620148,172.465195 
	C259.326324,177.360947 246.321869,178.050507 233.398666,176.762466 
	C219.484680,175.375702 205.685104,172.844574 191.833496,170.827209 
	C183.405945,169.599792 174.974396,168.399750 166.164413,166.701218 
	C163.101440,165.371948 159.622314,163.053162 157.897034,163.984238 
	C153.959183,166.109390 151.627045,165.537231 149.818909,162.365860 
	C146.940689,163.335556 144.532745,164.502274 142.000839,164.922729 
	C137.335526,165.697479 132.493988,165.586884 127.911552,166.647476 
	C118.839523,168.747147 109.813225,171.262741 102.745583,177.900650 
	C99.038895,181.381943 94.955803,184.656876 92.039864,188.737549 
	C88.201759,194.108749 85.312263,200.163284 82.136780,205.990448 
	C81.917587,206.392685 82.711479,207.346985 83.034241,208.044556 
	C83.034241,208.044556 83.003845,208.499420 83.005783,208.990921 
	C83.019379,209.657471 83.031036,209.832520 83.042694,210.007568 
	C83.042694,210.007568 83.019951,210.018402 82.655006,210.097031 
	C81.532463,212.070831 80.239838,213.933258 80.121422,215.867554 
	C79.813538,220.896881 80.021385,225.957794 80.025520,231.429291 
	C80.343628,233.640778 80.886276,235.422714 80.936661,237.218460 
	C81.160179,245.184555 84.325729,251.800171 89.755043,257.494507 
	C92.640945,260.521332 95.177345,263.918640 98.287865,266.679718 
	C100.084282,268.274323 102.709457,268.935272 104.961624,270.016449 
	C104.961624,270.016449 105.001518,270.009125 105.055077,270.367462 
	C108.800789,273.276062 112.492943,275.826324 117.094429,279.004669 
	C113.804436,279.004669 111.396088,279.004669 108.987732,279.004669 
	C108.987732,279.004669 109.001839,279.000000 108.941681,278.651550 
	C107.173073,277.169434 105.460274,276.042328 103.757210,274.900665 
	C101.229523,273.206207 98.336380,271.864075 96.258186,269.729889 
	C91.039429,264.370453 85.888695,258.888000 81.273544,253.012787 
	C76.118500,246.450256 71.314171,239.664810 71.579262,230.488007 
	C71.728371,225.326340 70.546814,220.126236 69.964737,214.943451 
z"/>
<path fill="#043705" opacity="1.000000" stroke="none" 
	d="
M96.996552,215.979202 
	C96.996513,214.936523 96.996475,213.893829 97.224152,212.316422 
	C97.627571,211.479446 97.803291,211.177185 97.979004,210.874924 
	C97.979004,210.874924 98.027184,210.429245 98.401947,210.162079 
	C100.704681,209.894913 102.632652,209.894913 104.848793,209.894913 
	C102.029976,220.551163 101.736023,230.166199 105.475433,239.203339 
	C107.675461,244.520203 111.795326,249.046051 115.096916,253.896912 
	C115.343201,254.258759 115.945015,254.391968 116.396507,254.598801 
	C121.613190,256.988617 126.860771,259.313232 132.041931,261.777527 
	C135.621292,263.479980 138.317749,263.015930 139.136963,258.804016 
	C140.048340,254.118347 140.647751,249.364746 141.193527,244.618912 
	C141.405396,242.776611 141.099136,240.874725 141.042877,238.658325 
	C141.094543,237.862320 141.132217,237.407944 141.503937,236.864349 
	C146.810028,230.069412 144.465744,222.304825 145.007233,214.559937 
	C145.036926,213.106644 145.055161,212.049652 145.415710,210.903900 
	C146.487442,208.524796 147.216843,206.234436 147.975586,203.960312 
	C148.004929,203.976532 147.939606,203.966568 148.097717,203.878174 
	C148.147232,203.514877 148.038620,203.239975 147.922302,202.729095 
	C147.914612,202.493134 147.911819,202.020935 148.165070,201.811310 
	C149.062988,200.110001 149.973511,198.673431 150.296478,197.115082 
	C150.949356,193.964996 150.920563,190.639984 151.836594,187.586227 
	C153.107422,183.349731 157.939560,180.731094 162.322083,181.249237 
	C170.284103,182.190552 178.281097,182.898727 186.195648,184.137573 
	C188.330124,184.471664 190.220490,186.365417 193.125397,188.074112 
	C187.107788,190.821609 190.450806,194.047409 191.001358,197.033966 
	C190.991531,197.205566 190.981705,197.377167 190.681213,198.051544 
	C189.937439,199.781937 189.349533,200.977905 189.052719,202.242218 
	C186.863174,211.568878 184.714111,220.905243 182.616241,230.252884 
	C182.453720,230.977005 182.641281,231.860535 182.903809,232.583679 
	C183.618408,234.552002 184.460602,236.474030 185.358276,238.674347 
	C187.903259,236.132202 190.457687,233.580612 193.479355,231.020477 
	C199.018265,231.004395 204.090591,231.041794 209.161301,230.968430 
	C211.352219,230.936722 213.159683,231.161072 213.000305,233.999695 
	C213.000000,234.000000 212.999390,234.000610 212.772766,234.100937 
	C212.263428,234.401337 212.079666,234.669281 211.997437,235.002563 
	C212.000000,235.000000 212.005081,234.994843 211.777420,235.099899 
	C211.360504,235.475800 211.171234,235.746658 210.990341,236.008652 
	C210.998718,235.999802 211.012436,235.979721 210.774719,236.163025 
	C210.354858,236.902634 210.172729,237.458939 209.995636,238.007721 
	C210.000687,238.000183 210.013245,237.987122 209.789062,238.098358 
	C209.373077,238.476730 209.181244,238.743866 208.994720,239.005493 
	C209.000000,239.000000 209.011017,238.989273 208.785553,239.097656 
	C208.369385,239.474777 208.178680,239.743546 207.993622,240.006546 
	C207.999252,240.000793 208.010498,239.989548 207.698425,240.048660 
	C206.921036,240.741714 206.455734,241.375656 205.994202,242.005798 
	C205.997955,242.002029 205.985550,242.014465 205.774963,242.127411 
	C205.303162,242.439285 205.115036,242.692505 204.626068,243.054596 
	C195.486511,244.440338 191.479843,252.876358 183.919373,255.793381 
	C182.191544,255.971817 180.444763,256.302032 178.992584,257.141724 
	C174.689987,259.629669 170.797958,263.271851 166.198654,264.692017 
	C160.201248,266.543854 153.682312,266.719604 147.381302,267.568329 
	C145.127411,267.871918 142.559616,268.812469 140.655746,268.090118 
	C137.346268,266.834442 134.537186,265.309570 130.674820,264.664825 
	C124.286201,263.598328 117.481514,260.073822 112.679344,255.616486 
	C105.503464,248.955902 99.140755,241.055130 97.865829,230.513046 
	C97.396080,226.628815 96.601135,222.783905 95.954514,218.921066 
	C95.982483,218.484848 96.010452,218.048615 96.259399,217.167664 
	C96.717651,216.520325 96.889709,216.272415 96.996552,215.979202 
M100.259911,217.513000 
	C100.060806,217.798462 99.861694,218.083923 99.662590,218.369385 
	C99.958588,218.186035 100.254585,218.002686 100.259911,217.513000 
z"/>
<path fill="#023603" opacity="1.000000" stroke="none" 
	d="
M128.937469,310.895996 
	C128.966370,309.862274 128.995255,308.828552 129.268402,307.213654 
	C129.669067,306.049500 129.825470,305.466553 129.981873,304.883575 
	C129.997086,304.466064 130.012283,304.048523 130.403580,303.214111 
	C131.148560,302.290619 131.758820,301.823792 131.849731,301.271484 
	C133.013260,294.203430 132.293289,286.217194 141.052750,282.971252 
	C141.496002,282.991028 141.939270,283.010834 142.940887,283.286011 
	C145.898193,283.554230 148.620651,284.319427 150.640503,283.450806 
	C159.787674,279.517120 170.923630,280.056183 177.598618,270.536591 
	C177.914505,270.837097 178.230392,271.137604 178.546280,271.438141 
	C178.697662,274.641876 178.849045,277.845642 179.000427,281.049377 
	C179.000412,281.049377 178.982010,281.527161 178.657181,281.969543 
	C177.574356,286.967346 176.816360,291.522736 176.058350,296.078156 
	C176.037857,298.910583 176.312698,301.783203 175.933578,304.566803 
	C175.207489,309.898346 174.109772,315.179260 172.673859,320.862274 
	C170.412094,329.855774 168.193832,338.408722 167.042603,347.102997 
	C166.357651,352.275787 164.638870,354.848816 159.202911,355.040497 
	C156.106705,355.149719 153.021515,355.571503 149.621796,355.872803 
	C148.898804,355.872925 148.485382,355.852722 147.722443,355.604431 
	C143.600189,355.254517 139.826370,355.002747 136.054932,355.034637 
	C123.157684,355.143646 123.897377,355.412933 123.993958,342.922852 
	C123.993958,342.922852 124.063347,342.437286 124.362488,342.158722 
	C124.775902,341.258087 124.890167,340.635986 125.004440,340.013916 
	C125.016586,338.935425 125.028732,337.856934 125.360992,336.189087 
	C126.420036,333.322510 127.158951,331.045288 127.898628,328.626465 
	C127.899391,328.484833 127.909172,328.201752 128.022812,327.891815 
	C128.099152,324.719604 128.061859,321.857330 128.024582,318.995056 
	C128.040955,318.226288 128.057327,317.457489 128.317993,316.089355 
	C128.687347,313.958649 128.812408,312.427338 128.937469,310.895996 
z"/>
<path fill="#113C11" opacity="1.000000" stroke="none" 
	d="
M336.910339,257.021118 
	C336.476501,264.928650 332.586792,271.380585 327.967163,277.395966 
	C321.435608,285.900970 312.577820,290.490997 302.168884,292.935577 
	C292.298889,295.253601 283.135071,293.056396 274.357880,289.425781 
	C263.470062,284.922180 254.545166,277.092773 251.935333,265.470306 
	C246.379333,240.727646 249.640182,223.653839 272.366425,209.094131 
	C279.359955,204.613708 287.684692,204.668991 295.587402,203.443298 
	C295.909760,203.393311 296.338806,204.031174 296.630280,204.888306 
	C293.633545,213.551071 291.011261,217.089584 284.479797,221.159271 
	C283.603546,219.755341 283.065948,218.440521 282.528381,217.125702 
	C283.941284,216.857864 285.423279,216.177429 286.753967,216.400360 
	C290.578491,217.041061 292.394745,215.943039 292.779205,212.266052 
	C283.708527,211.447510 265.705353,220.381088 263.281647,229.925995 
	C269.616364,228.949829 269.793579,233.524933 270.717407,237.735703 
	C268.650330,238.242783 266.918732,238.667557 264.926086,238.836090 
	C260.371002,237.329163 259.353821,241.203186 257.363342,243.443939 
	C257.289551,243.527008 258.796326,245.664566 259.784821,245.890701 
	C261.328369,246.243866 263.058838,245.779938 264.976196,245.643219 
	C263.318939,251.360168 259.567627,248.594406 255.146683,248.148605 
	C256.270782,250.966507 257.056366,252.935867 257.892731,255.309555 
	C259.312500,264.332367 263.468964,271.264160 270.316406,276.694397 
	C280.321808,284.628998 291.581329,286.504578 304.221710,283.989807 
	C306.741699,282.677307 308.868530,281.365326 311.219849,280.221680 
	C314.606598,278.240723 317.768860,276.091461 321.269958,274.101288 
	C326.071045,275.952271 328.199585,273.744232 329.952637,269.850769 
	C331.944550,265.426849 334.563812,261.285370 336.910339,257.021118 
z"/>
<path fill="#0F3B10" opacity="1.000000" stroke="none" 
	d="
M191.348083,196.972656 
	C190.450806,194.047409 187.107788,190.821609 193.125397,188.074112 
	C190.220490,186.365417 188.330124,184.471664 186.195648,184.137573 
	C178.281097,182.898727 170.284103,182.190552 162.322083,181.249237 
	C157.939560,180.731094 153.107422,183.349731 151.836594,187.586227 
	C150.920563,190.639984 150.949356,193.964996 150.296478,197.115082 
	C149.973511,198.673431 149.062988,200.110001 147.922073,201.507324 
	C147.425842,197.087616 147.425842,192.762253 147.425842,188.163132 
	C144.622040,188.163132 142.111023,187.757782 139.780670,188.234909 
	C130.790634,190.075577 122.349518,193.022446 115.590576,199.808853 
	C108.083321,207.346603 104.727272,216.300415 105.492279,226.754044 
	C106.073875,234.701355 108.545700,242.412872 114.630112,247.541656 
	C119.879311,251.966370 126.470634,254.875824 132.679199,258.042236 
	C134.748459,259.097595 136.543411,258.060425 137.100189,255.113983 
	C138.125366,249.688919 139.689407,244.365662 141.028885,238.999985 
	C141.099136,240.874725 141.405396,242.776611 141.193527,244.618912 
	C140.647751,249.364746 140.048340,254.118347 139.136963,258.804016 
	C138.317749,263.015930 135.621292,263.479980 132.041931,261.777527 
	C126.860771,259.313232 121.613190,256.988617 116.396507,254.598801 
	C115.945015,254.391968 115.343201,254.258759 115.096916,253.896912 
	C111.795326,249.046051 107.675461,244.520203 105.475433,239.203339 
	C101.736023,230.166199 102.029976,220.551163 104.848793,209.894913 
	C102.632652,209.894913 100.704681,209.894913 98.432846,209.940094 
	C101.946312,195.346054 112.497612,187.146439 125.780983,181.995636 
	C130.729813,180.076660 136.167297,179.270691 141.455429,178.406830 
	C150.443405,176.938553 150.467865,177.088242 151.375732,166.863373 
	C131.216034,165.894073 113.141159,171.679733 98.617828,185.423859 
	C92.219620,191.478790 88.519608,200.384888 83.314407,208.020538 
	C82.711479,207.346985 81.917587,206.392685 82.136780,205.990448 
	C85.312263,200.163284 88.201759,194.108749 92.039864,188.737549 
	C94.955803,184.656876 99.038895,181.381943 102.745583,177.900650 
	C109.813225,171.262741 118.839523,168.747147 127.911552,166.647476 
	C132.493988,165.586884 137.335526,165.697479 142.000839,164.922729 
	C144.532745,164.502274 146.940689,163.335556 149.818909,162.365860 
	C151.627045,165.537231 153.959183,166.109390 157.897034,163.984238 
	C159.622314,163.053162 163.101440,165.371948 165.871338,166.552856 
	C156.172058,167.141983 155.951904,167.357208 153.508057,177.056473 
	C153.084564,178.737244 152.254440,180.315567 151.771057,182.296036 
	C159.936905,173.816849 169.099838,181.685715 177.702972,180.403061 
	C181.304718,179.866074 185.184998,181.419830 188.961929,181.775833 
	C193.195206,182.174835 195.201569,183.953110 193.926575,188.400436 
	C193.118515,191.219025 192.434464,194.073166 191.348083,196.972656 
z"/>
<path fill="#043705" opacity="1.000000" stroke="none" 
	d="
M245.992294,235.210205 
	C245.752258,235.990280 245.512222,236.770370 244.878860,238.014618 
	C243.002213,243.710159 241.232071,248.881775 240.125412,254.191666 
	C239.223495,258.519196 236.594528,260.590729 232.676453,260.904663 
	C226.436798,261.404602 220.157913,261.415192 213.895554,261.631287 
	C210.319138,261.754700 206.742279,261.979736 203.166260,261.967590 
	C199.593460,261.955444 196.021469,261.704620 191.208466,261.507660 
	C194.910172,257.542053 197.621735,255.122787 199.718384,252.254074 
	C201.800919,249.404724 203.264816,246.103226 205.210831,242.886810 
	C205.684998,242.576584 205.872955,242.323517 205.985550,242.014465 
	C205.985550,242.014465 205.997955,242.002029 206.305466,241.942093 
	C207.078812,241.251282 207.544647,240.620407 208.010498,239.989548 
	C208.010498,239.989548 207.999252,240.000793 208.214676,239.891800 
	C208.706497,239.578888 208.900131,239.314377 209.011017,238.989273 
	C209.011017,238.989273 209.000000,239.000000 209.214081,238.888702 
	C209.699875,238.570755 209.894897,238.307327 210.013245,237.987122 
	C210.013245,237.987122 210.000687,238.000183 210.244263,237.837112 
	C210.662689,237.109268 210.837555,236.544495 211.012436,235.979721 
	C211.012436,235.979721 210.998718,235.999802 211.222168,235.907181 
	C211.632095,235.541321 211.818588,235.268082 212.005081,234.994843 
	C212.005081,234.994843 212.000000,235.000000 212.226135,234.904816 
	C212.737854,234.609741 212.920227,234.340073 212.999390,234.000610 
	C212.999390,234.000610 213.000000,234.000000 213.336761,233.837753 
	C215.460983,232.776031 217.220840,231.171280 219.040695,231.100082 
	C226.616669,230.803680 234.213318,231.083694 241.796890,230.911331 
	C245.034912,230.837753 246.400131,232.010925 245.992294,235.210205 
z"/>
<path fill="#0F3B10" opacity="1.000000" stroke="none" 
	d="
M281.420410,171.245895 
	C283.337616,170.772583 285.224396,169.754868 286.430969,170.285065 
	C295.922455,174.455872 305.283905,178.922638 315.799438,183.816772 
	C313.832001,184.408371 312.843079,185.077484 312.276489,184.819397 
	C305.602814,181.779602 298.593506,182.818161 291.683075,183.107391 
	C289.993500,183.178116 288.196808,184.099579 286.708588,185.040070 
	C272.689087,193.899750 257.909119,196.052841 241.740433,191.759094 
	C232.467270,189.296494 222.739731,188.554977 213.227783,186.972290 
	C211.547562,186.692719 209.921814,186.085876 208.315659,184.994598 
	C233.644958,185.644852 258.654144,185.443161 281.420410,171.245895 
z"/>
<path fill="#0A370B" opacity="1.000000" stroke="none" 
	d="
M286.003418,307.070648 
	C258.277618,311.839844 227.849442,297.092255 219.320847,273.500854 
	C222.405594,273.007202 225.453323,272.523407 228.499680,272.031067 
	C233.328888,271.250641 237.358643,272.569519 240.274628,276.627075 
	C250.387344,290.698822 263.923859,299.008087 281.729523,301.435303 
	C284.976685,302.500031 287.706085,303.165405 291.154266,304.006042 
	C288.961395,305.310730 287.482422,306.190704 286.003418,307.070648 
z"/>
<path fill="#083908" opacity="1.000000" stroke="none" 
	d="
M336.948059,256.778931 
	C334.563812,261.285370 331.944550,265.426849 329.952637,269.850769 
	C328.199585,273.744232 326.071045,275.952271 321.374390,273.895020 
	C321.317688,273.263916 321.555481,273.072998 322.212006,272.933167 
	C328.083923,271.950043 326.122650,267.317047 326.922180,263.998016 
	C326.916412,263.952271 327.004120,263.923767 327.351746,263.872314 
	C328.461243,261.868530 329.223175,259.916199 329.992981,257.563110 
	C330.032959,256.094147 330.065063,255.025970 330.412109,253.755173 
	C334.349182,245.817017 330.204010,238.712601 321.976959,236.879013 
	C320.096527,236.459930 317.777130,234.771530 317.046814,233.071487 
	C315.252838,228.895370 314.266693,224.372208 312.988281,219.657349 
	C313.097717,218.888412 313.174500,218.450760 313.510071,217.949585 
	C314.009308,217.675735 314.276215,217.487152 314.476440,217.243729 
	C314.549957,217.154343 314.465729,216.935287 314.453491,216.775391 
	C312.664917,216.998611 310.258453,216.604172 309.252899,217.610107 
	C308.136108,218.727371 308.297028,221.121902 307.956177,223.324585 
	C307.877960,225.101196 308.244049,226.892273 307.515289,227.852142 
	C305.629395,230.336197 303.220215,229.233063 300.765076,227.767151 
	C298.089020,227.340485 295.648315,227.155853 292.897034,226.934494 
	C292.383667,226.946259 292.180908,226.994751 291.986481,227.024002 
	C291.994843,227.004776 291.963104,227.032440 292.013580,226.756409 
	C292.052490,226.293655 292.040955,226.106949 292.015991,225.539902 
	C291.702820,223.647858 291.403015,222.136139 291.103210,220.624405 
	C290.603912,220.656616 290.104645,220.688812 289.605347,220.721024 
	C289.419128,222.503113 289.232941,224.285217 288.646576,226.078888 
	C287.182220,226.051926 286.118042,226.013367 285.056152,225.608704 
	C285.110199,224.757538 285.161987,224.272491 285.297699,223.736679 
	C285.501373,223.492218 285.450867,223.342896 285.166687,222.904449 
	C285.008331,222.130096 284.913391,221.689240 284.818481,221.248398 
	C291.011261,217.089584 293.633545,213.551071 296.808441,205.193878 
	C297.074463,204.959747 297.553894,205.013596 297.975647,205.342773 
	C303.837982,209.673126 311.235229,208.709045 316.564270,214.063065 
	C322.504547,220.031143 329.464447,224.914917 332.118652,233.383011 
	C332.724518,235.315903 332.395264,237.526733 332.880920,239.515747 
	C333.772919,243.168747 335.014130,246.735031 335.983032,250.371231 
	C336.477264,252.226181 336.696564,254.154404 337.040131,256.049500 
	C337.040131,256.049500 336.985779,256.536713 336.948059,256.778931 
z"/>
<path fill="#0F3B10" opacity="1.000000" stroke="none" 
	d="
M204.626068,243.054596 
	C203.264816,246.103226 201.800919,249.404724 199.718384,252.254074 
	C197.621735,255.122787 194.910172,257.542053 191.208466,261.507660 
	C196.021469,261.704620 199.593460,261.955444 203.166260,261.967590 
	C206.742279,261.979736 210.319138,261.754700 213.895554,261.631287 
	C220.157913,261.415192 226.436798,261.404602 232.676453,260.904663 
	C236.594528,260.590729 239.223495,258.519196 240.125412,254.191666 
	C241.232071,248.881775 243.002213,243.710159 244.745453,238.230286 
	C244.661148,241.766113 244.608124,245.606720 243.890320,249.318787 
	C243.180923,252.987350 241.358688,256.462921 240.832886,260.138763 
	C240.264923,264.109283 237.992432,265.003418 234.698166,265.011383 
	C229.077377,265.024933 223.456467,264.991638 217.210480,264.550629 
	C206.410385,264.080597 196.235443,264.037964 186.060486,263.995361 
	C186.696930,261.904510 187.333374,259.813629 188.017700,257.565460 
	C184.997543,259.058319 181.707916,260.664856 178.435410,262.305603 
	C167.811630,267.632080 156.401459,270.033722 144.680786,270.844543 
	C142.011520,271.029236 139.232498,269.304871 136.472336,268.579651 
	C133.048950,267.680206 129.612350,266.810699 126.147133,266.094421 
	C110.990433,262.961426 99.774162,250.477463 97.142334,236.600571 
	C96.077850,230.987854 95.919556,225.203278 95.651703,219.208984 
	C96.601135,222.783905 97.396080,226.628815 97.865829,230.513046 
	C99.140755,241.055130 105.503464,248.955902 112.679344,255.616486 
	C117.481514,260.073822 124.286201,263.598328 130.674820,264.664825 
	C134.537186,265.309570 137.346268,266.834442 140.655746,268.090118 
	C142.559616,268.812469 145.127411,267.871918 147.381302,267.568329 
	C153.682312,266.719604 160.201248,266.543854 166.198654,264.692017 
	C170.797958,263.271851 174.689987,259.629669 178.992584,257.141724 
	C180.444763,256.302032 182.191544,255.971817 183.919373,255.793381 
	C191.479843,252.876358 195.486511,244.440338 204.626068,243.054596 
z"/>
<path fill="#123A13" opacity="1.000000" stroke="none" 
	d="
M69.659073,215.237885 
	C70.546814,220.126236 71.728371,225.326340 71.579262,230.488007 
	C71.314171,239.664810 76.118500,246.450256 81.273544,253.012787 
	C85.888695,258.888000 91.039429,264.370453 96.258186,269.729889 
	C98.336380,271.864075 101.229523,273.206207 103.757210,274.900665 
	C105.460274,276.042328 107.173073,277.169434 108.938568,278.658936 
	C105.361626,277.822449 101.398239,277.202271 98.153122,275.334320 
	C86.724640,268.755890 78.715675,259.400574 73.493523,246.941803 
	C69.145462,236.568375 68.809120,226.248703 69.659073,215.237885 
z"/>
<path fill="#113C11" opacity="1.000000" stroke="none" 
	d="
M337.281433,255.832031 
	C336.696564,254.154404 336.477264,252.226181 335.983032,250.371231 
	C335.014130,246.735031 333.772919,243.168747 332.880920,239.515747 
	C332.395264,237.526733 332.724518,235.315903 332.118652,233.383011 
	C329.464447,224.914917 322.504547,220.031143 316.564270,214.063065 
	C311.235229,208.709045 303.837982,209.673126 298.215454,205.368622 
	C303.897186,203.500412 309.001984,205.713043 313.894745,208.465637 
	C324.987213,214.706055 332.555939,224.136826 336.214203,236.129150 
	C338.089233,242.275742 340.542145,248.906906 337.281433,255.832031 
z"/>
<path fill="#123A13" opacity="1.000000" stroke="none" 
	d="
M140.804443,282.718048 
	C132.293289,286.217194 133.013260,294.203430 131.849731,301.271484 
	C131.758820,301.823792 131.148560,302.290619 130.423096,302.901367 
	C130.738235,297.293671 131.409958,291.581818 132.181168,285.023987 
	C127.887375,284.229156 123.306252,283.524353 118.797989,282.499176 
	C115.481613,281.745056 112.260551,280.571777 108.992371,279.294983 
	C111.396088,279.004669 113.804436,279.004669 117.094429,279.004669 
	C112.492943,275.826324 108.800789,273.276062 105.047058,270.386108 
	C108.286781,271.712982 111.470695,273.696808 114.916885,274.971710 
	C120.087074,276.884399 125.425629,278.352966 130.722992,279.906738 
	C133.971359,280.859528 137.276505,281.618713 140.804443,282.718048 
z"/>
<path fill="#0F3B10" opacity="1.000000" stroke="none" 
	d="
M193.012115,231.029022 
	C190.457687,233.580612 187.903259,236.132202 185.358276,238.674347 
	C184.460602,236.474030 183.618408,234.552002 182.903809,232.583679 
	C182.641281,231.860535 182.453720,230.977005 182.616241,230.252884 
	C184.714111,220.905243 186.863174,211.568878 189.052719,202.242218 
	C189.349533,200.977905 189.937439,199.781937 190.661316,198.308624 
	C191.285706,199.103210 192.064362,200.203796 191.926712,201.174438 
	C190.652451,210.160080 189.240768,219.126617 187.799789,228.087570 
	C187.665054,228.925476 187.055084,229.686951 186.052307,231.739731 
	C188.589630,231.084595 190.031158,230.712402 191.891174,230.429138 
	C192.503418,230.743927 192.737549,230.914230 193.012115,231.029022 
z"/>
<path fill="#123A13" opacity="1.000000" stroke="none" 
	d="
M104.828163,269.705383 
	C102.709457,268.935272 100.084282,268.274323 98.287865,266.679718 
	C95.177345,263.918640 92.640945,260.521332 89.755043,257.494507 
	C84.325729,251.800171 81.160179,245.184555 80.936661,237.218460 
	C80.886276,235.422714 80.343628,233.640778 80.338318,231.428024 
	C81.065651,231.004074 81.482262,231.004578 81.898872,231.005096 
	C83.897018,246.107437 90.809792,258.360779 103.037453,267.553375 
	C103.685143,268.040283 104.146561,268.774994 104.828163,269.705383 
z"/>
<path fill="#123A13" opacity="1.000000" stroke="none" 
	d="
M179.329910,280.874390 
	C178.849045,277.845642 178.697662,274.641876 178.546280,271.438141 
	C178.230392,271.137604 177.914505,270.837097 177.598618,270.536591 
	C170.923630,280.056183 159.787674,279.517120 150.640503,283.450806 
	C148.620651,284.319427 145.898193,283.554230 143.273010,283.306946 
	C156.652344,279.989258 169.751785,275.681580 180.768158,266.335175 
	C181.236710,266.704376 181.705246,267.073578 182.173798,267.442810 
	C181.335663,271.861664 180.497528,276.280548 179.329910,280.874390 
z"/>
<path fill="#123A13" opacity="1.000000" stroke="none" 
	d="
M149.931366,355.852539 
	C153.021515,355.571503 156.106705,355.149719 159.202911,355.040497 
	C164.638870,354.848816 166.357651,352.275787 167.042603,347.102997 
	C168.193832,338.408722 170.412094,329.855774 172.525757,321.152191 
	C172.122482,327.229187 171.415100,333.402557 170.611908,339.563446 
	C170.147141,343.128479 169.585022,346.683380 168.963089,350.224670 
	C168.266129,354.193176 167.390167,358.021484 161.837158,357.005859 
	C160.558838,356.772095 159.202271,356.966125 157.156708,356.679108 
	C154.264923,356.214111 152.098145,356.033325 149.931366,355.852539 
z"/>
<path fill="#2A4C2B" opacity="1.000000" stroke="none" 
	d="
M193.479340,231.020477 
	C192.737549,230.914230 192.503418,230.743927 192.207825,230.327011 
	C209.399643,230.102356 226.693314,230.045334 243.986954,230.054596 
	C247.533875,230.056503 249.233871,231.328171 246.322540,235.032059 
	C246.400131,232.010925 245.034912,230.837753 241.796890,230.911331 
	C234.213318,231.083694 226.616669,230.803680 219.040695,231.100082 
	C217.220840,231.171280 215.460983,232.776031 213.337067,233.837448 
	C213.159683,231.161072 211.352219,230.936722 209.161301,230.968430 
	C204.090591,231.041794 199.018265,231.004395 193.479340,231.020477 
z"/>
<path fill="#123A13" opacity="1.000000" stroke="none" 
	d="
M123.709778,343.211578 
	C123.897377,355.412933 123.157684,355.143646 136.054932,355.034637 
	C139.826370,355.002747 143.600189,355.254517 147.249146,355.650330 
	C141.380722,356.293884 135.636078,356.663361 129.891449,357.032837 
	C127.216583,356.735352 124.541725,356.437866 121.866867,356.140411 
	C122.238411,353.700134 122.654480,351.265533 122.966545,348.817688 
	C123.191345,347.054352 123.277557,345.273407 123.709778,343.211578 
z"/>
<path fill="#718F75" opacity="1.000000" stroke="none" 
	d="
M397.731506,183.612198 
	C380.115723,184.061157 362.281250,184.142365 343.946259,184.122192 
	C344.150452,183.660065 344.856018,182.983200 345.559845,182.984924 
	C362.877625,183.027740 380.195190,183.142532 397.731506,183.612198 
z"/>
<path fill="#123A13" opacity="1.000000" stroke="none" 
	d="
M286.426727,307.058167 
	C287.482422,306.190704 288.961395,305.310730 291.154266,304.006042 
	C287.706085,303.165405 284.976685,302.500031 282.139832,301.474487 
	C288.253601,301.569122 294.474854,302.023865 300.696075,302.478607 
	C300.776917,303.085938 300.857788,303.693268 300.938629,304.300598 
	C296.242432,305.215637 291.546234,306.130646 286.426727,307.058167 
z"/>
<path fill="#123A13" opacity="1.000000" stroke="none" 
	d="
M107.590866,160.949417 
	C107.784920,161.595428 107.811920,162.517365 107.396629,162.808548 
	C101.537933,166.916580 95.619095,170.938843 89.347321,174.987244 
	C93.822174,168.701096 99.837997,163.931717 107.590866,160.949417 
z"/>
<path fill="#123A13" opacity="1.000000" stroke="none" 
	d="
M80.682709,185.132202 
	C78.802475,190.260239 76.561989,195.524399 74.449905,200.839584 
	C73.053955,204.352585 71.842400,207.938858 70.293266,211.740082 
	C70.508430,201.936066 74.204155,193.133408 80.682709,185.132202 
z"/>
<path fill="#BFCFBE" opacity="1.000000" stroke="none" 
	d="
M340.284607,209.444946 
	C354.909241,209.022354 369.705902,208.966949 384.501434,209.073990 
	C385.144958,209.078644 388.725800,207.181091 386.419922,211.023117 
	C384.424225,210.729294 382.794739,210.065796 381.158722,210.049316 
	C367.591980,209.912674 354.024017,209.895615 340.284607,209.444946 
z"/>
<path fill="#0F3B10" opacity="1.000000" stroke="none" 
	d="
M81.936752,230.539642 
	C81.482262,231.004578 81.065651,231.004074 80.336243,231.004822 
	C80.021385,225.957794 79.813538,220.896881 80.121422,215.867554 
	C80.239838,213.933258 81.532463,212.070831 82.657578,210.109375 
	C82.674934,216.720123 82.324783,223.397156 81.936752,230.539642 
z"/>
<path fill="#123A13" opacity="1.000000" stroke="none" 
	d="
M124.608521,154.003525 
	C121.060570,159.725723 114.496162,159.338272 108.399002,160.981293 
	C113.393379,158.635849 118.799828,156.305389 124.608521,154.003525 
z"/>
<path fill="#123A13" opacity="1.000000" stroke="none" 
	d="
M145.661957,148.925751 
	C139.604462,150.705185 133.241470,152.350372 126.468979,153.999588 
	C129.088501,152.654495 132.012268,150.912460 135.175674,150.064911 
	C138.448105,149.188171 141.953156,149.179733 145.661957,148.925751 
z"/>
<path fill="#123A13" opacity="1.000000" stroke="none" 
	d="
M127.747772,319.261597 
	C128.061859,321.857330 128.099152,324.719604 127.916786,327.934418 
	C127.697128,328.286957 127.631241,328.580627 127.631241,328.580627 
	C127.631241,328.580627 127.897865,328.768066 127.897865,328.768066 
	C127.158951,331.045288 126.420036,333.322510 125.379089,335.785034 
	C125.875031,330.489594 126.673004,325.008881 127.747772,319.261597 
z"/>
<path fill="#123A13" opacity="1.000000" stroke="none" 
	d="
M176.370468,296.020874 
	C176.816360,291.522736 177.574356,286.967346 178.655289,282.208618 
	C178.213013,286.658051 177.447800,291.310822 176.370468,296.020874 
z"/>
<path fill="#FFFFFF" opacity="1.000000" stroke="none" 
	d="
M186.206116,264.411224 
	C196.235443,264.037964 206.410385,264.080597 216.750305,264.524933 
	C206.727432,264.893463 196.539581,264.860291 186.206116,264.411224 
z"/>
<path fill="#97B898" opacity="1.000000" stroke="none" 
	d="
M258.427917,149.071732 
	C252.611710,149.407974 246.335770,149.819260 240.053116,150.015915 
	C236.954956,150.112885 233.844406,149.813385 230.455200,149.402374 
	C239.435776,149.093735 248.700577,149.076019 258.427917,149.071732 
z"/>
<path fill="#2A4C2B" opacity="1.000000" stroke="none" 
	d="
M130.371033,357.043335 
	C135.636078,356.663361 141.380722,356.293884 147.598663,355.878479 
	C148.485382,355.852722 148.898804,355.872925 149.621796,355.872803 
	C152.098145,356.033325 154.264923,356.214111 156.706543,356.674988 
	C148.271118,356.987976 139.560867,357.020935 130.371033,357.043335 
z"/>
<path fill="#123A13" opacity="1.000000" stroke="none" 
	d="
M85.648911,178.115356 
	C84.530388,180.283005 83.102997,182.591156 81.323288,184.944336 
	C82.427330,182.744858 83.883690,180.500351 85.648911,178.115356 
z"/>
<path fill="#123A13" opacity="1.000000" stroke="none" 
	d="
M128.660812,311.156311 
	C128.812408,312.427338 128.687347,313.958649 128.338837,315.705444 
	C128.204956,314.419495 128.294556,312.918060 128.660812,311.156311 
z"/>
<path fill="#123A13" opacity="1.000000" stroke="none" 
	d="
M124.772537,340.179077 
	C124.890167,340.635986 124.775902,341.258087 124.402138,341.916687 
	C124.275307,341.416870 124.407982,340.880554 124.772537,340.179077 
z"/>
<path fill="#123A13" opacity="1.000000" stroke="none" 
	d="
M129.732834,305.071350 
	C129.825470,305.466553 129.669067,306.049500 129.274872,306.825867 
	C129.185989,306.432526 129.334900,305.845856 129.732834,305.071350 
z"/>
<path fill="#123A13" opacity="1.000000" stroke="none" 
	d="
M86.752930,177.074036 
	C86.876152,177.295837 86.688385,177.556732 86.195236,177.863739 
	C86.062233,177.638519 86.246269,177.372940 86.752930,177.074036 
z"/>
<path fill="#123A13" opacity="1.000000" stroke="none" 
	d="
M87.763397,176.078857 
	C87.879776,176.295990 87.688789,176.557785 87.193909,176.868469 
	C87.070518,176.648300 87.259193,176.383698 87.763397,176.078857 
z"/>
<path fill="#123A13" opacity="1.000000" stroke="none" 
	d="
M88.779053,175.092667 
	C88.878746,175.297134 88.682701,175.556793 88.192749,175.873734 
	C88.087708,175.666168 88.282539,175.405121 88.779053,175.092667 
z"/>
<path fill="#0F3B10" opacity="1.000000" stroke="none" 
	d="
M83.202652,209.908875 
	C83.031036,209.832520 83.019379,209.657471 83.006836,209.218857 
	C83.124825,209.240265 83.243713,209.525223 83.202652,209.908875 
z"/>
<path fill="#0F3B10" opacity="1.000000" stroke="none" 
	d="
M97.741486,211.005219 
	C97.803291,211.177185 97.627571,211.479446 97.228561,211.925781 
	C97.171501,211.758423 97.337730,211.446976 97.741486,211.005219 
z"/>
<path fill="#0F3B10" opacity="1.000000" stroke="none" 
	d="
M96.794601,216.091644 
	C96.889709,216.272415 96.717651,216.520325 96.287094,216.840988 
	C96.166328,216.645447 96.332611,216.393799 96.794601,216.091644 
z"/>
<path fill="#000000" opacity="1.000000" stroke="none" 
	d="
M141.042877,238.658325 
	C139.689407,244.365662 138.125366,249.688919 137.100189,255.113983 
	C136.543411,258.060425 134.748459,259.097595 132.679199,258.042236 
	C126.470634,254.875824 119.879311,251.966370 114.630112,247.541656 
	C108.545700,242.412872 106.073875,234.701355 105.492279,226.754044 
	C104.727272,216.300415 108.083321,207.346603 115.590576,199.808853 
	C122.349518,193.022446 130.790634,190.075577 139.780670,188.234909 
	C142.111023,187.757782 144.622040,188.163132 147.425842,188.163132 
	C147.425842,192.762253 147.425842,197.087616 147.668823,201.716949 
	C147.911819,202.020935 147.914612,202.493134 147.914536,202.979858 
	C147.922836,203.633240 147.931229,203.799896 147.939606,203.966568 
	C147.939606,203.966568 148.004929,203.976532 147.620667,204.039246 
	C146.515381,206.398865 145.794373,208.695770 145.073364,210.992676 
	C145.055161,212.049652 145.036926,213.106644 144.716949,214.826233 
	C143.333420,222.643753 142.251648,229.798676 141.169891,236.953583 
	C141.132217,237.407944 141.094543,237.862320 141.042877,238.658325 
z"/>
<path fill="#0F3B10" opacity="1.000000" stroke="none" 
	d="
M141.503937,236.864349 
	C142.251648,229.798676 143.333420,222.643753 144.705490,215.222549 
	C144.465744,222.304825 146.810028,230.069412 141.503937,236.864349 
z"/>
<path fill="#0F3B10" opacity="1.000000" stroke="none" 
	d="
M145.415695,210.903900 
	C145.794373,208.695770 146.515381,206.398865 147.591309,204.023041 
	C147.216843,206.234436 146.487442,208.524796 145.415695,210.903900 
z"/>
<path fill="#2A4C2B" opacity="1.000000" stroke="none" 
	d="
M207.698410,240.048660 
	C207.544647,240.620407 207.078812,241.251282 206.301697,241.945862 
	C206.455734,241.375656 206.921036,240.741714 207.698410,240.048660 
z"/>
<path fill="#0F3B10" opacity="1.000000" stroke="none" 
	d="
M100.405243,217.666168 
	C100.254585,218.002686 99.958588,218.186035 99.662590,218.369385 
	C99.861694,218.083923 100.060806,217.798462 100.405243,217.666168 
z"/>
<path fill="#2A4C2B" opacity="1.000000" stroke="none" 
	d="
M210.774719,236.163025 
	C210.837555,236.544495 210.662689,237.109268 210.239212,237.844650 
	C210.172729,237.458939 210.354858,236.902634 210.774719,236.163025 
z"/>
<path fill="#0F3B10" opacity="1.000000" stroke="none" 
	d="
M148.097717,203.878174 
	C147.931229,203.799896 147.922836,203.633240 147.922241,203.215820 
	C148.038620,203.239975 148.147232,203.514877 148.097717,203.878174 
z"/>
<path fill="#0F3B10" opacity="1.000000" stroke="none" 
	d="
M205.774963,242.127411 
	C205.872955,242.323517 205.684998,242.576584 205.210815,242.886810 
	C205.115036,242.692505 205.303162,242.439285 205.774963,242.127411 
z"/>
<path fill="#2A4C2B" opacity="1.000000" stroke="none" 
	d="
M208.785553,239.097656 
	C208.900131,239.314377 208.706497,239.578888 208.209045,239.897552 
	C208.178680,239.743546 208.369385,239.474777 208.785553,239.097656 
z"/>
<path fill="#2A4C2B" opacity="1.000000" stroke="none" 
	d="
M209.789062,238.098358 
	C209.894897,238.307327 209.699875,238.570755 209.208786,238.894211 
	C209.181244,238.743866 209.373077,238.476730 209.789062,238.098358 
z"/>
<path fill="#2A4C2B" opacity="1.000000" stroke="none" 
	d="
M211.777420,235.099899 
	C211.818588,235.268082 211.632095,235.541321 211.213776,235.916031 
	C211.171234,235.746658 211.360504,235.475800 211.777420,235.099899 
z"/>
<path fill="#2A4C2B" opacity="1.000000" stroke="none" 
	d="
M212.772766,234.100937 
	C212.920227,234.340073 212.737854,234.609741 212.223572,234.907364 
	C212.079666,234.669281 212.263428,234.401337 212.772766,234.100937 
z"/>
<path fill="#000000" opacity="1.000000" stroke="none" 
	d="
M127.898628,328.626465 
	C127.897865,328.768066 127.631241,328.580627 127.631241,328.580627 
	C127.631241,328.580627 127.697128,328.286957 127.803146,328.244354 
	C127.909172,328.201752 127.899391,328.484833 127.898628,328.626465 
z"/>
<path fill="#000000" opacity="1.000000" stroke="none" 
	d="
M285.213776,223.787430 
	C285.161987,224.272491 285.110199,224.757538 285.011383,225.982269 
	C283.547729,227.841171 282.039398,228.865936 280.750885,230.117096 
	C280.042847,230.804626 279.076508,232.195999 279.335632,232.700928 
	C279.823944,233.652496 281.301910,234.938705 282.034363,234.754776 
	C283.798218,234.311935 285.545685,233.316055 286.973694,232.145477 
	C288.804047,230.645096 290.314728,228.754776 291.963104,227.032440 
	C291.963104,227.032440 291.994843,227.004776 291.937744,227.366714 
	C292.237762,228.280655 292.594879,228.832657 292.959320,229.526764 
	C292.966644,229.668854 293.020996,229.948181 293.107117,230.219421 
	C295.220947,231.404190 297.516052,233.215698 298.022888,229.033707 
	C298.014801,229.017517 298.046783,229.038300 298.402161,229.115356 
	C301.537323,234.805832 301.537323,234.805832 306.922363,231.253448 
	C306.945129,231.684250 306.984802,231.854050 307.015503,232.343430 
	C307.075256,233.082855 307.143951,233.502701 307.160370,234.184586 
	C307.073639,234.621429 307.039215,234.796234 306.719666,235.105072 
	C306.181244,235.811081 305.927979,236.383041 305.333191,237.013794 
	C300.984283,237.200897 296.637299,238.366653 293.055756,237.194168 
	C288.607574,235.738007 285.201569,235.645981 281.630371,238.968613 
	C281.187866,239.294281 280.974976,239.522675 280.501770,239.969421 
	C279.065277,241.310196 277.227509,242.301819 276.912994,243.649094 
	C276.017731,247.483688 275.035980,251.563782 275.572174,255.336365 
	C275.787292,256.849915 279.761261,258.455109 282.225342,258.896454 
	C287.824432,259.899384 292.797150,260.989563 293.898865,267.876984 
	C294.214478,269.850189 295.787567,271.649902 296.894592,273.461639 
	C298.211700,275.617279 299.647858,277.700165 301.260132,280.162231 
	C301.747894,280.116577 302.893402,280.009369 304.276764,280.073303 
	C304.285950,281.493134 304.057251,282.741730 303.828583,283.990356 
	C291.581329,286.504578 280.321808,284.628998 270.316406,276.694397 
	C263.468964,271.264160 259.312500,264.332367 257.775513,254.998108 
	C257.436737,253.212631 257.265930,252.142929 257.032593,250.681732 
	C261.512482,251.695526 264.736420,251.008820 267.030365,246.958466 
	C269.031189,243.425674 266.608643,241.509262 265.187134,239.092346 
	C266.918732,238.667557 268.650330,238.242783 270.717407,237.735703 
	C269.793579,233.524933 269.616364,228.949829 263.281647,229.925995 
	C265.705353,220.381088 283.708527,211.447510 292.779205,212.266052 
	C292.394745,215.943039 290.578491,217.041061 286.753967,216.400360 
	C285.423279,216.177429 283.941284,216.857864 282.528381,217.125702 
	C283.065948,218.440521 283.603546,219.755341 284.479797,221.159271 
	C284.913391,221.689240 285.008331,222.130096 285.144287,223.040100 
	C285.185303,223.509262 285.213776,223.787430 285.213776,223.787430 
z"/>
<path fill="#000000" opacity="1.000000" stroke="none" 
	d="
M330.097198,253.957779 
	C330.065063,255.025970 330.032959,256.094147 329.682983,257.726868 
	C328.578125,260.168854 327.791138,262.046326 327.004120,263.923767 
	C327.004120,263.923767 326.916412,263.952271 326.606140,264.125244 
	C324.815033,267.184418 323.334167,270.070648 321.853333,272.956879 
	C321.555481,273.072998 321.317688,273.263916 321.035553,273.735962 
	C317.768860,276.091461 314.606598,278.240723 311.211487,279.832703 
	C309.670593,277.485168 308.362549,275.694946 307.299255,273.646088 
	C308.371155,270.287476 309.198334,267.187531 310.296692,263.860962 
	C311.954987,261.157074 312.773560,257.365875 314.844849,256.469574 
	C319.486420,254.461090 320.577240,251.123566 320.911591,246.872284 
	C321.115723,244.277008 321.530334,241.865738 325.340637,242.003387 
	C329.207245,242.888672 330.373871,245.148560 330.010376,248.587738 
	C329.823639,250.354950 330.054871,252.166351 330.097198,253.957779 
z"/>
<path fill="#2A4C2B" opacity="1.000000" stroke="none" 
	d="
M264.926086,238.836090 
	C266.608643,241.509262 269.031189,243.425674 267.030365,246.958466 
	C264.736420,251.008820 261.512482,251.695526 257.032593,250.681732 
	C257.265930,252.142929 257.436737,253.212631 257.724792,254.593781 
	C257.056366,252.935867 256.270782,250.966507 255.146683,248.148605 
	C259.567627,248.594406 263.318939,251.360168 264.976196,245.643219 
	C263.058838,245.779938 261.328369,246.243866 259.784821,245.890701 
	C258.796326,245.664566 257.289551,243.527008 257.363342,243.443939 
	C259.353821,241.203186 260.371002,237.329163 264.926086,238.836090 
z"/>
<path fill="#2A4C2B" opacity="1.000000" stroke="none" 
	d="
M307.054504,273.904724 
	C308.362549,275.694946 309.670593,277.485168 310.987000,279.664368 
	C308.868530,281.365326 306.741699,282.677307 304.221710,283.989807 
	C304.057251,282.741730 304.285950,281.493134 304.269714,279.769531 
	C304.038513,278.887939 304.052246,278.481323 304.290955,277.815125 
	C305.362122,276.338562 306.208313,275.121643 307.054504,273.904724 
z"/>
<path fill="#113C11" opacity="1.000000" stroke="none" 
	d="
M330.412109,253.755173 
	C330.054871,252.166351 329.823639,250.354950 330.010376,248.587738 
	C330.373871,245.148560 329.207245,242.888672 325.257782,241.643707 
	C321.904816,240.482025 319.007385,239.754501 315.817291,238.803772 
	C313.571228,234.965576 310.166748,236.159698 307.116394,235.784042 
	C307.054016,235.332428 307.029419,235.151733 307.004822,234.971024 
	C307.039215,234.796234 307.073639,234.621429 307.459167,234.183701 
	C308.553406,233.388275 309.296600,232.855774 310.328430,232.267105 
	C310.806183,232.159042 310.995270,232.107162 311.526978,232.047180 
	C312.425476,231.449432 313.570740,230.620529 313.443909,230.308060 
	C312.432465,227.816422 311.179871,225.422684 310.000610,222.999466 
	C310.000000,223.000000 309.998840,223.001083 310.276520,222.949783 
	C311.354645,221.928543 312.155121,220.958588 312.955597,219.988647 
	C314.266693,224.372208 315.252838,228.895370 317.046814,233.071487 
	C317.777130,234.771530 320.096527,236.459930 321.976959,236.879013 
	C330.204010,238.712601 334.349182,245.817017 330.412109,253.755173 
z"/>
<path fill="#2A4C2B" opacity="1.000000" stroke="none" 
	d="
M310.001221,222.998932 
	C311.179871,225.422684 312.432465,227.816422 313.443909,230.308060 
	C313.570740,230.620529 312.425476,231.449432 311.419861,231.645813 
	C309.626526,231.165848 308.282898,231.079147 306.939301,230.992447 
	C301.537323,234.805832 301.537323,234.805832 298.586670,228.838867 
	C299.277344,228.326614 300.138885,228.167892 301.000427,228.009186 
	C303.220215,229.233063 305.629395,230.336197 307.515289,227.852142 
	C308.244049,226.892273 307.877960,225.101196 308.307007,223.299561 
	C309.069305,222.939865 309.535278,222.969406 310.001221,222.998932 
z"/>
<path fill="#2A4C2B" opacity="1.000000" stroke="none" 
	d="
M292.013580,226.756409 
	C290.314728,228.754776 288.804047,230.645096 286.973694,232.145477 
	C285.545685,233.316055 283.798218,234.311935 282.034363,234.754776 
	C281.301910,234.938705 279.823944,233.652496 279.335632,232.700928 
	C279.076508,232.195999 280.042847,230.804626 280.750885,230.117096 
	C282.039398,228.865936 283.547729,227.841171 285.009094,226.348358 
	C286.118042,226.013367 287.182220,226.051926 289.018494,226.070618 
	C290.536835,226.007248 291.283112,225.963730 292.029388,225.920227 
	C292.040955,226.106949 292.052490,226.293655 292.013580,226.756409 
z"/>
<path fill="#113C11" opacity="1.000000" stroke="none" 
	d="
M310.000610,222.999481 
	C309.535278,222.969406 309.069305,222.939865 308.252502,222.935333 
	C308.297028,221.121902 308.136108,218.727371 309.252899,217.610107 
	C310.258453,216.604172 312.664917,216.998611 314.453491,216.775391 
	C314.465729,216.935287 314.549957,217.154343 314.476440,217.243729 
	C314.276215,217.487152 314.009308,217.675735 313.116638,217.964630 
	C311.642548,219.695847 310.820679,221.348465 309.998840,223.001083 
	C309.998840,223.001083 310.000000,223.000000 310.000610,222.999481 
z"/>
<path fill="#113C11" opacity="1.000000" stroke="none" 
	d="
M322.211975,272.933167 
	C323.334167,270.070648 324.815033,267.184418 326.611908,264.170959 
	C326.122650,267.317047 328.083923,271.950043 322.211975,272.933167 
z"/>
<path fill="#113C11" opacity="1.000000" stroke="none" 
	d="
M292.015991,225.539886 
	C291.283112,225.963730 290.536835,226.007248 289.418640,226.059021 
	C289.232941,224.285217 289.419128,222.503113 289.605347,220.721024 
	C290.104645,220.688812 290.603912,220.656616 291.103210,220.624405 
	C291.403015,222.136139 291.702820,223.647858 292.015991,225.539886 
z"/>
<path fill="#113C11" opacity="1.000000" stroke="none" 
	d="
M300.765076,227.767151 
	C300.138885,228.167892 299.277344,228.326614 298.231293,228.761810 
	C298.046783,229.038300 298.014801,229.017517 297.655579,228.994858 
	C295.871216,229.297531 294.446106,229.622864 293.020996,229.948181 
	C293.020996,229.948181 292.966644,229.668854 293.024750,229.125656 
	C293.124451,228.045380 293.166016,227.508286 293.207611,226.971207 
	C295.648315,227.155853 298.089020,227.340485 300.765076,227.767151 
z"/>
<path fill="#113C11" opacity="1.000000" stroke="none" 
	d="
M327.351746,263.872314 
	C327.791138,262.046326 328.578125,260.168854 329.675110,258.127625 
	C329.223175,259.916199 328.461243,261.868530 327.351746,263.872314 
z"/>
<path fill="#2A4C2B" opacity="1.000000" stroke="none" 
	d="
M310.276520,222.949783 
	C310.820679,221.348465 311.642548,219.695847 312.857849,218.028168 
	C313.174500,218.450760 313.097717,218.888412 312.988281,219.657349 
	C312.155121,220.958588 311.354645,221.928543 310.276520,222.949783 
z"/>
<path fill="#2A4C2B" opacity="1.000000" stroke="none" 
	d="
M292.897034,226.934494 
	C293.166016,227.508286 293.124451,228.045380 293.017426,228.983551 
	C292.594879,228.832657 292.237762,228.280655 291.929382,227.385941 
	C292.180908,226.994751 292.383667,226.946259 292.897034,226.934494 
z"/>
<path fill="#2A4C2B" opacity="1.000000" stroke="none" 
	d="
M285.297699,223.736679 
	C285.213776,223.787430 285.185303,223.509262 285.207703,223.373596 
	C285.450867,223.342896 285.501373,223.492218 285.297699,223.736679 
z"/>
<path fill="#113C11" opacity="1.000000" stroke="none" 
	d="
M304.065948,278.074738 
	C304.052246,278.481323 304.038513,278.887939 304.031860,279.598328 
	C302.893402,280.009369 301.747894,280.116577 301.260132,280.162231 
	C299.647858,277.700165 298.211700,275.617279 296.894592,273.461639 
	C295.787567,271.649902 294.214478,269.850189 293.898865,267.876984 
	C292.797150,260.989563 287.824432,259.899384 282.225342,258.896454 
	C279.761261,258.455109 275.787292,256.849915 275.572174,255.336365 
	C275.035980,251.563782 276.017731,247.483688 276.912994,243.649094 
	C277.227509,242.301819 279.065277,241.310196 280.584045,240.048035 
	C280.960541,239.939911 281.130493,240.091202 281.090240,240.454865 
	C280.737213,241.750900 280.703522,242.998505 280.065430,243.563431 
	C276.494507,246.725067 277.257904,249.817841 279.162567,253.674103 
	C281.184357,257.767426 284.431396,256.812012 287.609589,257.031158 
	C290.005829,257.196411 292.387543,257.572876 293.630219,257.719849 
	C294.761780,261.086090 295.267487,263.789520 296.527649,266.077393 
	C298.802490,270.207550 301.528412,274.089264 304.065948,278.074738 
z"/>
<path fill="#113C11" opacity="1.000000" stroke="none" 
	d="
M281.826050,238.839722 
	C285.201569,235.645981 288.607574,235.738007 293.055756,237.194168 
	C296.637299,238.366653 300.984283,237.200897 305.673370,237.060638 
	C306.582336,237.061646 306.809570,237.074585 307.009277,237.476212 
	C305.571259,238.547028 304.156097,239.821960 302.751038,239.810898 
	C295.853058,239.756683 288.957794,239.360580 282.003906,239.022705 
	C281.946228,238.960159 281.826050,238.839722 281.826050,238.839722 
z"/>
<path fill="#2A4C2B" opacity="1.000000" stroke="none" 
	d="
M293.107117,230.219421 
	C294.446106,229.622864 295.871216,229.297531 297.663666,229.011047 
	C297.516052,233.215698 295.220947,231.404190 293.107117,230.219421 
z"/>
<path fill="#2A4C2B" opacity="1.000000" stroke="none" 
	d="
M310.039764,232.323273 
	C309.296600,232.855774 308.553406,233.388275 307.511475,233.921646 
	C307.143951,233.502701 307.075256,233.082855 307.394531,232.401062 
	C308.534912,232.200500 309.287323,232.261887 310.039764,232.323273 
z"/>
<path fill="#BFCFBE" opacity="1.000000" stroke="none" 
	d="
M310.328430,232.267105 
	C309.287323,232.261887 308.534912,232.200500 307.403473,232.081482 
	C306.984802,231.854050 306.945129,231.684250 306.922363,231.253448 
	C308.282898,231.079147 309.626526,231.165848 311.077209,231.653915 
	C310.995270,232.107162 310.806183,232.159042 310.328430,232.267105 
z"/>
<path fill="#2A4C2B" opacity="1.000000" stroke="none" 
	d="
M307.036835,237.087509 
	C306.809570,237.074585 306.582336,237.061646 306.014893,237.001862 
	C305.927979,236.383041 306.181244,235.811081 306.719666,235.105072 
	C307.029419,235.151733 307.054016,235.332428 307.080872,236.041351 
	C307.067719,236.742218 307.052277,236.914856 307.036835,237.087509 
z"/>
<path fill="#113C11" opacity="1.000000" stroke="none" 
	d="
M280.878265,239.861298 
	C280.974976,239.522675 281.187866,239.294281 281.630371,238.968613 
	C281.826050,238.839722 281.946228,238.960159 281.881714,239.218658 
	C281.625885,239.723877 281.396973,239.928558 281.130493,240.091202 
	C281.130493,240.091202 280.960541,239.939911 280.878265,239.861298 
z"/>
<path fill="#053706" opacity="1.000000" stroke="none" 
	d="
M281.090240,240.454865 
	C281.396973,239.928558 281.625885,239.723877 281.939392,239.281189 
	C288.957794,239.360580 295.853058,239.756683 302.751038,239.810898 
	C304.156097,239.821960 305.571259,238.547028 307.009277,237.476212 
	C307.052277,236.914856 307.067719,236.742218 307.118652,236.312271 
	C310.166748,236.159698 313.571228,234.965576 315.848877,239.182068 
	C316.837616,242.149384 317.274628,244.610641 318.217957,246.859528 
	C319.780273,250.584106 317.815430,252.568390 314.904114,253.859787 
	C313.239136,254.598343 311.229736,254.560394 309.330658,254.879593 
	C309.568268,258.028473 309.796875,261.058014 310.025482,264.087555 
	C309.198334,267.187531 308.371155,270.287476 307.299255,273.646088 
	C306.208313,275.121643 305.362122,276.338562 304.290955,277.815125 
	C301.528412,274.089264 298.802490,270.207550 296.527649,266.077393 
	C295.267487,263.789520 294.761780,261.086090 293.630219,257.719849 
	C292.387543,257.572876 290.005829,257.196411 287.609589,257.031158 
	C284.431396,256.812012 281.184357,257.767426 279.162567,253.674103 
	C277.257904,249.817841 276.494507,246.725067 280.065430,243.563431 
	C280.703522,242.998505 280.737213,241.750900 281.090240,240.454865 
z"/>
<path fill="#2A4C2B" opacity="1.000000" stroke="none" 
	d="
M310.296692,263.860962 
	C309.796875,261.058014 309.568268,258.028473 309.330658,254.879593 
	C311.229736,254.560394 313.239136,254.598343 314.904114,253.859787 
	C317.815430,252.568390 319.780273,250.584106 318.217957,246.859528 
	C317.274628,244.610641 316.837616,242.149384 316.141541,239.405258 
	C319.007385,239.754501 321.904816,240.482025 324.885101,241.569244 
	C321.530334,241.865738 321.115723,244.277008 320.911591,246.872284 
	C320.577240,251.123566 319.486420,254.461090 314.844849,256.469574 
	C312.773560,257.365875 311.954987,261.157074 310.296692,263.860962 
z"/>
</svg>